<svg width="142" height="43" viewBox="0 0 142 43" fill="none" xmlns="http://www.w3.org/2000/svg">
<path d="M78.5122 29.9736L81.6112 24.944L84.4729 19.8124L87.6278 15.6267L92.3896 13.4473L97.4911 12.9496L102.543 13.7039L106.783 16.6345L109.768 20.8232L111.177 25.7849V30.9721L111.693 35.9523L113.551 48.2156L101.125 47.5361L95.5382 46.7418L90.0348 45.5084L84.4729 44.5748L78.9726 43.301L70.0269 40.0022L78.5122 29.9736Z" fill="url(#paint0_linear_52_592)"/>
<path d="M24.3662 56.7739L25.0421 50.9049L25.4597 45.0442L26.5437 39.916L29.9334 35.9242L34.3435 33.3117L39.2394 31.854L44.3215 32.712L48.8002 35.2413L52.179 39.1384L54.377 43.8369L56.9545 48.1293L63.8334 58.4502L52.2905 63.0999L46.8934 64.7477L41.3859 65.9625L35.9523 67.4736L30.4305 68.6505L20.9298 69.4531L24.3662 56.7739Z" fill="url(#paint1_linear_52_592)"/>
<path d="M57.7467 59.1373L147.81 59.0752L146.812 55.0476L146.117 49.7831L145.094 44.5803L144.263 39.3407L143.246 34.1378L142.137 28.9474L141.006 23.7632L139.856 18.579L139.139 13.3175L137.298 7.95403L133.642 3.54578L128.531 0.973775L122.898 0.160752L122.892 0L116.801 1.72498L111.99 5.66955L108.708 10.8939L106.19 16.1307L103.773 21.4014L100.276 26.0106L96.1348 30.0201L90.6407 31.3896L85.0876 30.1005L80.7401 26.2641L73.5557 23.417L73.5619 23.213L68.8462 24.0043L65.2003 27.1173L62.9658 31.4081L62.0419 37.1951L60.902 42.942L59.6814 48.6766L58.8378 54.4821L57.7467 59.1373Z" fill="#82E4D5"/>
<path d="M0 57.751L2.29887 52.4772L4.60395 47.2375L7.21816 42.1306L9.61011 36.9247L11.8873 31.6694L14.2699 26.4574L20.2399 22.72V22.822L24.3711 24.5748L26.6948 28.4761L27.2541 35.1843L28.2028 41.8492L32.4782 45.2102L37.0538 46.667L40.4954 47.2868L46.2047 46.0103L50.6617 42.4242L53.8596 36.6805L58.5163 33.0884L64.2978 32.365L64.2517 32.6277L69.548 35.3822L72.6598 40.5973L73.6174 46.0103L74.6682 51.4048L75.6754 56.8112L76.3399 62.0574L71.0715 62.1005L65.6329 61.3279L60.1636 61.1114L54.6757 61.1793L49.2277 60.5087L43.7492 60.4284L38.2764 60.255L32.8444 59.3618L27.3592 59.3152L21.9116 58.7435L16.442 58.4282L10.9479 58.5919L5.47548 58.3661L0 57.751Z" fill="url(#paint2_linear_52_592)"/>
<path d="M126.596 40.2894H133.406V39.3194C133.406 36.4187 132.168 33.6558 130.002 31.7251L129.892 31.8275C127.793 33.7563 126.598 36.4727 126.598 39.3213V40.2894H126.596Z" fill="#F1FFFD"/>
<path d="M119.699 22.3179H132.287V16.7903L125.992 13.7537L119.699 16.8815V22.3179Z" fill="#F1FFFD"/>
<path d="M114.293 16.7323H119.611V12.0462L116.951 9.47131L114.293 12.1225V16.7323Z" fill="#F1FFFD"/>
<path d="M113.406 28.6479H104.458V31.813H113.406V28.6479Z" fill="#F1FFFD"/>
<path d="M102.221 22.1317C103.455 22.1317 104.458 23.1333 104.458 24.3659V28.648H99.9844V24.3659C99.9844 23.1333 100.987 22.1317 102.221 22.1317Z" fill="#F1FFFD"/>
<path d="M126.596 40.2891H120.445V44.7573H126.596V40.2891Z" fill="#F1FFFD"/>
<path d="M120.445 37.1243H116.717V40.2895H120.445V37.1243Z" fill="#F1FFFD"/>
<defs>
<linearGradient id="paint0_linear_52_592" x1="78.5122" y1="24.267" x2="111.693" y2="24.267" gradientUnits="userSpaceOnUse">
<stop offset="0.31" stop-color="#56D4C0"/>
<stop offset="0.82" stop-color="#ABEDE2"/>
</linearGradient>
<linearGradient id="paint1_linear_52_592" x1="21.9481" y1="51.6049" x2="52.0031" y2="37.5449" gradientUnits="userSpaceOnUse">
<stop offset="0.31" stop-color="#56D4C0"/>
<stop offset="0.82" stop-color="#ABEDE2"/>
</linearGradient>
<linearGradient id="paint2_linear_52_592" x1="38.1682" y1="22.72" x2="38.1682" y2="62.1005" gradientUnits="userSpaceOnUse">
<stop offset="0.31" stop-color="#ABEDE2"/>
<stop offset="0.83" stop-color="#ABEDE2" stop-opacity="0"/>
</linearGradient>
</defs>
</svg>
