<svg width="282" height="310" viewBox="0 0 282 310" fill="none" xmlns="http://www.w3.org/2000/svg">
<path d="M241.293 140C225.958 122.416 222.891 60.0001 253.561 60.0001C284.23 60.0002 285.955 119.131 274.454 140C260.172 138.115 252.912 138.095 241.293 140Z" fill="#1E6586" stroke="#1E6586"/>
<path d="M239.126 151.862C213.099 202.267 275.252 213.072 270.03 157.821L239.126 151.862Z" fill="#1E6586" stroke="#1E6586"/>
<path d="M54.0924 225.42C77.381 226.841 123.988 268.469 102.46 290.313C80.9313 312.156 37.6058 271.879 30.815 249.038C42.1831 240.188 47.293 235.032 54.0924 225.42Z" fill="#1E6586" stroke="#1E6586"/>
<path d="M48.3001 218.638C40.6892 162.422 -16.4121 189.241 19.5715 231.492L48.3001 218.638Z" fill="#1E6586" stroke="#1E6586"/>
<path d="M105.702 36.9047C95.017 57.6462 38.1378 83.5281 26.8207 55.023C15.5036 26.518 69.8244 3.09515 93.4651 6.0836C96.9839 20.0539 99.6439 26.8083 105.702 36.9047Z" fill="#1E6586" stroke="#1E6586"/>
<path d="M118.951 37.6799C172.891 55.2462 173.541 -7.83604 119.853 6.21963L118.951 37.6799Z" fill="#1E6586" stroke="#1E6586"/>
<path d="M214.011 178.845C200.218 208.678 170.026 229.376 135 229.376C105.647 229.376 79.6902 214.841 63.9337 192.575C80.3099 218.667 107.267 246.187 135 267.376C168.178 242.309 199.725 211.067 214.011 178.845Z" fill="#1E6586"/>
<path fill-rule="evenodd" clip-rule="evenodd" d="M214.011 178.845C219.139 167.753 222 155.399 222 142.376C222 94.3277 183.049 55.3765 135 55.3765C86.951 55.3765 47.9998 94.3277 47.9998 142.376C47.9998 161.073 53.8974 178.392 63.9337 192.575C79.6902 214.841 105.647 229.376 135 229.376C170.026 229.376 200.218 208.678 214.011 178.845ZM135 94.0001C108.386 94.0003 86.7913 115.764 87 142.376C87.207 168.782 108.594 190 135 190C161.406 190 182.793 168.782 183 142.376C183.209 115.763 161.614 94 135 94.0001Z" fill="#1E6586"/>
</svg>
